<svg width="14" height="14" viewBox="0 0 14 14" fill="none" xmlns="http://www.w3.org/2000/svg">
<path d="M2.26042 8.18453L6.19792 12.122C6.23855 12.1627 6.2868 12.195 6.33991 12.217C6.39302 12.239 6.44995 12.2503 6.50745 12.2503C6.56494 12.2503 6.62187 12.239 6.67498 12.217C6.7281 12.195 6.77635 12.1627 6.81698 12.122L10.7545 8.18453C10.8366 8.10244 10.8827 7.9911 10.8827 7.875C10.8827 7.7589 10.8366 7.64756 10.7545 7.56547C10.6724 7.48338 10.561 7.43726 10.4449 7.43726C10.3289 7.43726 10.2175 7.48338 10.1354 7.56547L6.94495 10.7565L6.94495 2.1875C6.94495 2.07147 6.89885 1.96019 6.81681 1.87814C6.73476 1.79609 6.62348 1.75 6.50745 1.75C6.39142 1.75 6.28013 1.79609 6.19809 1.87814C6.11604 1.96019 6.06995 2.07147 6.06995 2.1875L6.06995 10.7565L2.87948 7.56547C2.79739 7.48338 2.68604 7.43726 2.56995 7.43726C2.45385 7.43726 2.34251 7.48338 2.26042 7.56547C2.17832 7.64756 2.1322 7.7589 2.1322 7.875C2.1322 7.9911 2.17832 8.10244 2.26042 8.18453Z" fill="#F31D1D"/>
</svg>
