<svg width="14" height="14" viewBox="0 0 14 14" fill="none" xmlns="http://www.w3.org/2000/svg">
<path d="M2.75297 5.81547L6.69047 1.87797C6.7311 1.83729 6.77935 1.80502 6.83247 1.78301C6.88558 1.76099 6.94251 1.74966 7 1.74966C7.0575 1.74966 7.11443 1.76099 7.16754 1.78301C7.22065 1.80502 7.2689 1.83729 7.30953 1.87797L11.247 5.81547C11.3291 5.89756 11.3752 6.0089 11.3752 6.125C11.3752 6.2411 11.3291 6.35244 11.247 6.43453C11.1649 6.51662 11.0536 6.56274 10.9375 6.56274C10.8214 6.56274 10.7101 6.51662 10.628 6.43453L7.4375 3.24352L7.4375 11.8125C7.4375 11.9285 7.39141 12.0398 7.30936 12.1219C7.22731 12.2039 7.11603 12.25 7 12.25C6.88397 12.25 6.77269 12.2039 6.69064 12.1219C6.60859 12.0398 6.5625 11.9285 6.5625 11.8125L6.5625 3.24352L3.37203 6.43453C3.28994 6.51662 3.1786 6.56274 3.0625 6.56274C2.9464 6.56274 2.83506 6.51662 2.75297 6.43453C2.67088 6.35244 2.62476 6.2411 2.62476 6.125C2.62476 6.0089 2.67088 5.89756 2.75297 5.81547Z" fill="#1D874F"/>
</svg>
