<svg width="20" height="20" viewBox="0 0 20 20" fill="none" xmlns="http://www.w3.org/2000/svg">
<g clip-path="url(#clip0_21_10013)">
<path d="M6.25 3.75C4.5924 3.75 3.00269 4.40848 1.83058 5.58058C0.65848 6.75269 0 8.3424 0 10C0 11.6576 0.65848 13.2473 1.83058 14.4194C3.00269 15.5915 4.5924 16.25 6.25 16.25H13.75C15.4076 16.25 16.9973 15.5915 18.1694 14.4194C19.3415 13.2473 20 11.6576 20 10C20 8.3424 19.3415 6.75269 18.1694 5.58058C16.9973 4.40848 15.4076 3.75 13.75 3.75H6.25ZM13.75 15C12.4239 15 11.1521 14.4732 10.2145 13.5355C9.27678 12.5979 8.75 11.3261 8.75 10C8.75 8.67392 9.27678 7.40215 10.2145 6.46447C11.1521 5.52678 12.4239 5 13.75 5C15.0761 5 16.3479 5.52678 17.2855 6.46447C18.2232 7.40215 18.75 8.67392 18.75 10C18.75 11.3261 18.2232 12.5979 17.2855 13.5355C16.3479 14.4732 15.0761 15 13.75 15Z" fill="#027056"/>
</g>
<defs>
<clipPath id="clip0_21_10013">
<rect width="20" height="20" fill="white"/>
</clipPath>
</defs>
</svg>
