<svg width="20" height="20" viewBox="0 0 20 20" fill="none" xmlns="http://www.w3.org/2000/svg">
<path d="M18.125 16.25C18.125 16.4158 18.0592 16.5747 17.9419 16.6919C17.8247 16.8092 17.6658 16.875 17.5 16.875H2.5C2.33424 16.875 2.17527 16.8092 2.05806 16.6919C1.94085 16.5747 1.875 16.4158 1.875 16.25V3.75C1.875 3.58424 1.94085 3.42527 2.05806 3.30806C2.17527 3.19085 2.33424 3.125 2.5 3.125C2.66576 3.125 2.82473 3.19085 2.94194 3.30806C3.05915 3.42527 3.125 3.58424 3.125 3.75V11.1227L7.08828 7.65625C7.19613 7.56184 7.33315 7.50737 7.47638 7.50197C7.61961 7.49656 7.76034 7.54055 7.875 7.62656L12.4695 11.0727L17.0883 7.03125C17.1488 6.9713 17.221 6.92437 17.3004 6.89334C17.3797 6.86231 17.4646 6.84784 17.5498 6.85081C17.6349 6.85378 17.7186 6.87414 17.7956 6.91062C17.8726 6.94711 17.9413 6.99896 17.9976 7.06298C18.0538 7.127 18.0963 7.20185 18.1226 7.28292C18.1488 7.36399 18.1582 7.44956 18.1502 7.5344C18.1421 7.61923 18.1168 7.70152 18.0758 7.77622C18.0348 7.85091 17.979 7.91643 17.9117 7.96875L12.9117 12.3438C12.8039 12.4382 12.6669 12.4926 12.5236 12.498C12.3804 12.5034 12.2397 12.4594 12.125 12.3734L7.53047 8.92891L3.125 12.7836V15.625H17.5C17.6658 15.625 17.8247 15.6908 17.9419 15.8081C18.0592 15.9253 18.125 16.0842 18.125 16.25Z" fill="#031B15"/>
</svg>
