<svg width="20" height="20" viewBox="0 0 20 20" fill="none" xmlns="http://www.w3.org/2000/svg">
<path d="M16.25 2.5H6.25C5.91848 2.5 5.60054 2.6317 5.36612 2.86612C5.1317 3.10054 5 3.41848 5 3.75V5H3.75C3.41848 5 3.10054 5.1317 2.86612 5.36612C2.6317 5.60054 2.5 5.91848 2.5 6.25V16.25C2.5 16.5815 2.6317 16.8995 2.86612 17.1339C3.10054 17.3683 3.41848 17.5 3.75 17.5H13.75C14.0815 17.5 14.3995 17.3683 14.6339 17.1339C14.8683 16.8995 15 16.5815 15 16.25V15H16.25C16.5815 15 16.8995 14.8683 17.1339 14.6339C17.3683 14.3995 17.5 14.0815 17.5 13.75V3.75C17.5 3.41848 17.3683 3.10054 17.1339 2.86612C16.8995 2.6317 16.5815 2.5 16.25 2.5ZM6.25 3.75H16.25V9.17031L14.9453 7.86562C14.7109 7.63138 14.3931 7.4998 14.0617 7.4998C13.7303 7.4998 13.4125 7.63138 13.1781 7.86562L7.29453 13.75H6.25V3.75ZM13.75 16.25H3.75V6.25H5V13.75C5 14.0815 5.1317 14.3995 5.36612 14.6339C5.60054 14.8683 5.91848 15 6.25 15H13.75V16.25ZM16.25 13.75H9.0625L14.0625 8.75L16.25 10.9375V13.75ZM9.375 8.75C9.74584 8.75 10.1084 8.64003 10.4167 8.43401C10.725 8.22798 10.9654 7.93514 11.1073 7.59253C11.2492 7.24992 11.2863 6.87292 11.214 6.50921C11.1416 6.14549 10.963 5.8114 10.7008 5.54917C10.4386 5.28695 10.1045 5.10837 9.74079 5.03603C9.37708 4.96368 9.00008 5.00081 8.65747 5.14273C8.31486 5.28464 8.02202 5.52496 7.81599 5.83331C7.60997 6.14165 7.5 6.50416 7.5 6.875C7.5 7.37228 7.69754 7.84919 8.04917 8.20083C8.40081 8.55246 8.87772 8.75 9.375 8.75ZM9.375 6.25C9.49861 6.25 9.61945 6.28666 9.72223 6.35533C9.82501 6.42401 9.90512 6.52162 9.95243 6.63582C9.99973 6.75003 10.0121 6.87569 9.98799 6.99693C9.96388 7.11817 9.90435 7.22953 9.81694 7.31694C9.72953 7.40435 9.61817 7.46388 9.49693 7.48799C9.37569 7.51211 9.25003 7.49973 9.13582 7.45243C9.02162 7.40512 8.92401 7.32501 8.85533 7.22223C8.78666 7.11945 8.75 6.99861 8.75 6.875C8.75 6.70924 8.81585 6.55027 8.93306 6.43306C9.05027 6.31585 9.20924 6.25 9.375 6.25Z" fill="#7E8986"/>
</svg>
