<svg width="284" height="107" viewBox="0 0 284 107" fill="none" xmlns="http://www.w3.org/2000/svg">
<g clip-path="url(#clip0_21_11194)">
<path d="M0.666626 37.5H283.667" stroke="#EDEDED"/>
<path d="M0.666626 72.5H283.667" stroke="#EDEDED"/>
<path d="M0.666626 104.5L26.5711 81.1231C27.3637 80.4078 28.4094 80.0391 29.4754 80.099L59.8788 81.8081C60.9038 81.8657 61.9116 81.5271 62.6938 80.8622L90.1543 57.5222C91.6046 56.2895 93.7228 56.2496 95.2186 57.4267L122.714 79.0653C124.618 80.5639 127.407 80.0387 128.635 77.9502L154.328 34.276C155.805 31.7652 159.384 31.6248 161.053 34.0121L187.708 72.133C188.935 73.8891 191.329 74.3657 193.136 73.2139L219.93 56.1335C220.673 55.6599 221.552 55.4449 222.429 55.5217L251.336 58.0529C252.683 58.1708 253.998 57.6005 254.832 56.5368L284.667 18.5" stroke="#1D874F"/>
<path d="M26.1465 81.1537L0.547747 104.765C-0.121532 105.382 0.315244 106.5 1.22574 106.5H280.667C282.876 106.5 284.667 104.709 284.667 102.5V18.5L254.781 56.5397C253.947 57.6018 252.633 58.171 251.287 58.0534L222.324 55.5214C221.447 55.4448 220.57 55.6592 219.828 56.1316L192.978 73.2194C191.173 74.3686 188.782 73.8927 187.554 72.1394L160.844 34.0011C159.175 31.6171 155.599 31.7575 154.122 34.2651L128.377 77.9578C127.148 80.0434 124.363 80.568 122.459 79.0725L94.9034 57.4214C93.4085 56.2469 91.2935 56.2868 89.844 57.5168L62.3297 80.8646C61.5479 81.528 60.5413 81.8658 59.5175 81.8084L29.0826 80.1003C28.0017 80.0396 26.9423 80.4197 26.1465 81.1537Z" fill="url(#paint0_linear_21_11194)" fill-opacity="0.15"/>
<path d="M0.666626 82.8933L77.1458 92.3029C78.1733 92.4294 79.2099 92.1524 80.0375 91.5304L121.718 60.2027C122.627 59.5196 123.784 59.2555 124.899 59.4765L160.156 66.4628C160.979 66.6258 161.832 66.5262 162.595 66.1781L201.247 48.5392C202.64 47.9035 204.273 48.1188 205.454 49.0936L241.171 78.5832C242.467 79.6532 244.294 79.799 245.743 78.9481L284.667 56.0955" stroke="#DB3500" stroke-opacity="0.8" stroke-dasharray="2 2"/>
</g>
<defs>
<linearGradient id="paint0_linear_21_11194" x1="141.283" y1="-0.0769196" x2="141.467" y2="122" gradientUnits="userSpaceOnUse">
<stop stop-color="#2EB76F"/>
<stop offset="1" stop-color="#2EB76F" stop-opacity="0"/>
</linearGradient>
<clipPath id="clip0_21_11194">
<rect width="283.667" height="107" fill="white"/>
</clipPath>
</defs>
</svg>
