<svg width="20" height="20" viewBox="0 0 20 20" fill="none" xmlns="http://www.w3.org/2000/svg">
<path d="M16.875 3.125H10.625V1.875C10.625 1.70924 10.5592 1.55027 10.4419 1.43306C10.3247 1.31585 10.1658 1.25 10 1.25C9.83424 1.25 9.67527 1.31585 9.55806 1.43306C9.44085 1.55027 9.375 1.70924 9.375 1.875V3.125H3.125C2.79348 3.125 2.47554 3.2567 2.24112 3.49112C2.0067 3.72554 1.875 4.04348 1.875 4.375V13.75C1.875 14.0815 2.0067 14.3995 2.24112 14.6339C2.47554 14.8683 2.79348 15 3.125 15H6.2L4.51172 17.1094C4.40812 17.2389 4.36021 17.4042 4.37852 17.5691C4.39683 17.7339 4.47987 17.8847 4.60938 17.9883C4.73888 18.0919 4.90423 18.1398 5.06905 18.1215C5.23388 18.1032 5.38468 18.0201 5.48828 17.8906L7.8 15H12.2L14.5117 17.8906C14.563 17.9547 14.6264 18.0081 14.6984 18.0477C14.7703 18.0874 14.8493 18.1124 14.9309 18.1215C15.0126 18.1306 15.0952 18.1235 15.174 18.1006C15.2529 18.0777 15.3265 18.0396 15.3906 17.9883C15.4547 17.937 15.5081 17.8736 15.5477 17.8016C15.5874 17.7297 15.6124 17.6507 15.6215 17.5691C15.6305 17.4874 15.6235 17.4048 15.6006 17.326C15.5777 17.2471 15.5396 17.1735 15.4883 17.1094L13.8 15H16.875C17.2065 15 17.5245 14.8683 17.7589 14.6339C17.9933 14.3995 18.125 14.0815 18.125 13.75V4.375C18.125 4.04348 17.9933 3.72554 17.7589 3.49112C17.5245 3.2567 17.2065 3.125 16.875 3.125ZM16.875 13.75H3.125V4.375H16.875V13.75ZM8.125 9.375V11.25C8.125 11.4158 8.05915 11.5747 7.94194 11.6919C7.82473 11.8092 7.66576 11.875 7.5 11.875C7.33424 11.875 7.17527 11.8092 7.05806 11.6919C6.94085 11.5747 6.875 11.4158 6.875 11.25V9.375C6.875 9.20924 6.94085 9.05027 7.05806 8.93306C7.17527 8.81585 7.33424 8.75 7.5 8.75C7.66576 8.75 7.82473 8.81585 7.94194 8.93306C8.05915 9.05027 8.125 9.20924 8.125 9.375ZM10.625 8.125V11.25C10.625 11.4158 10.5592 11.5747 10.4419 11.6919C10.3247 11.8092 10.1658 11.875 10 11.875C9.83424 11.875 9.67527 11.8092 9.55806 11.6919C9.44085 11.5747 9.375 11.4158 9.375 11.25V8.125C9.375 7.95924 9.44085 7.80027 9.55806 7.68306C9.67527 7.56585 9.83424 7.5 10 7.5C10.1658 7.5 10.3247 7.56585 10.4419 7.68306C10.5592 7.80027 10.625 7.95924 10.625 8.125ZM13.125 6.875V11.25C13.125 11.4158 13.0592 11.5747 12.9419 11.6919C12.8247 11.8092 12.6658 11.875 12.5 11.875C12.3342 11.875 12.1753 11.8092 12.0581 11.6919C11.9408 11.5747 11.875 11.4158 11.875 11.25V6.875C11.875 6.70924 11.9408 6.55027 12.0581 6.43306C12.1753 6.31585 12.3342 6.25 12.5 6.25C12.6658 6.25 12.8247 6.31585 12.9419 6.43306C13.0592 6.55027 13.125 6.70924 13.125 6.875Z" fill="#7E8986"/>
</svg>
