<svg width="20" height="20" viewBox="0 0 20 20" fill="none" xmlns="http://www.w3.org/2000/svg">
<path d="M10 6.25003C9.25832 6.25003 8.53329 6.46996 7.91661 6.88202C7.29992 7.29407 6.81928 7.87974 6.53545 8.56496C6.25162 9.25019 6.17736 10.0042 6.32205 10.7316C6.46675 11.459 6.8239 12.1272 7.34835 12.6517C7.87279 13.1761 8.54098 13.5333 9.26841 13.678C9.99584 13.8227 10.7498 13.7484 11.4351 13.4646C12.1203 13.1807 12.706 12.7001 13.118 12.0834C13.5301 11.4667 13.75 10.7417 13.75 10C13.749 9.00578 13.3535 8.05256 12.6505 7.34952C11.9475 6.64648 10.9942 6.25106 10 6.25003ZM10 12.5C9.50554 12.5 9.02219 12.3534 8.61107 12.0787C8.19995 11.804 7.87952 11.4135 7.6903 10.9567C7.50108 10.4999 7.45157 9.99725 7.54803 9.5123C7.6445 9.02735 7.8826 8.58189 8.23223 8.23226C8.58186 7.88263 9.02732 7.64453 9.51227 7.54806C9.99722 7.4516 10.4999 7.50111 10.9567 7.69033C11.4135 7.87955 11.804 8.19998 12.0787 8.6111C12.3534 9.02222 12.5 9.50557 12.5 10C12.5 10.6631 12.2366 11.299 11.7678 11.7678C11.2989 12.2366 10.663 12.5 10 12.5ZM18.5891 8.37581C18.5717 8.2878 18.5355 8.20456 18.4831 8.13177C18.4306 8.05897 18.3631 7.99832 18.2852 7.95393L15.9547 6.62581L15.9453 3.99924C15.945 3.90879 15.9251 3.81947 15.8869 3.73746C15.8488 3.65545 15.7932 3.5827 15.7242 3.52424C14.8788 2.80916 13.9053 2.26117 12.8555 1.9094C12.7728 1.88142 12.6852 1.87106 12.5982 1.879C12.5113 1.88694 12.427 1.913 12.3508 1.95549L10 3.26956L7.64687 1.95315C7.57058 1.91041 7.48618 1.88416 7.39911 1.87608C7.31204 1.86801 7.22425 1.87829 7.1414 1.90628C6.0923 2.26062 5.11991 2.8107 4.27578 3.52737C4.20685 3.58574 4.15139 3.65836 4.11322 3.74023C4.07505 3.8221 4.05508 3.91126 4.05468 4.00159L4.04296 6.63049L1.7125 7.95862C1.63453 8.00301 1.56703 8.06366 1.51459 8.13646C1.46215 8.20925 1.426 8.29248 1.40859 8.38049C1.19531 9.45228 1.19531 10.5556 1.40859 11.6274C1.426 11.7154 1.46215 11.7986 1.51459 11.8714C1.56703 11.9442 1.63453 12.0049 1.7125 12.0492L4.04296 13.3774L4.05234 16.0039C4.05262 16.0944 4.07254 16.1837 4.11071 16.2657C4.14888 16.3477 4.2044 16.4205 4.27343 16.4789C5.1188 17.194 6.09231 17.742 7.14218 18.0938C7.22486 18.1218 7.31248 18.1321 7.39941 18.1242C7.48633 18.1162 7.57063 18.0902 7.64687 18.0477L10 16.7305L12.3531 18.0469C12.4462 18.0988 12.5512 18.1257 12.6578 18.125C12.7261 18.125 12.7939 18.1139 12.8586 18.0922C13.9076 17.7383 14.88 17.1888 15.7242 16.4727C15.7931 16.4143 15.8486 16.3417 15.8868 16.2598C15.9249 16.178 15.9449 16.0888 15.9453 15.9985L15.957 13.3696L18.2875 12.0414C18.3655 11.997 18.433 11.9364 18.4854 11.8636C18.5378 11.7908 18.574 11.7076 18.5914 11.6196C18.8035 10.5486 18.8027 9.44643 18.5891 8.37581ZM17.4172 11.1032L15.1852 12.3727C15.0874 12.4283 15.0064 12.5093 14.9508 12.6071C14.9055 12.6852 14.8578 12.768 14.8094 12.8461C14.7474 12.9446 14.7143 13.0586 14.7141 13.175L14.7023 15.6946C14.1024 16.1657 13.434 16.5424 12.7203 16.8117L10.4687 15.5571C10.3753 15.5053 10.2701 15.4784 10.1633 15.4789H10.1484C10.0539 15.4789 9.95859 15.4789 9.86406 15.4789C9.75225 15.4761 9.64171 15.5031 9.54375 15.5571L7.29062 16.8149C6.57539 16.5476 5.90517 16.1727 5.30312 15.7032L5.29453 13.1875C5.29414 13.0709 5.26113 12.9567 5.19922 12.8578C5.15078 12.7797 5.10312 12.7016 5.05859 12.6188C5.00337 12.5195 4.92241 12.4369 4.82421 12.3797L2.58984 11.1071C2.47421 10.3757 2.47421 9.63064 2.58984 8.89925L4.81796 7.62737C4.91576 7.57176 4.99673 7.49079 5.05234 7.39299C5.09765 7.31487 5.14531 7.23206 5.19375 7.15393C5.25575 7.05541 5.28878 6.94143 5.28906 6.82503L5.30078 4.30549C5.90072 3.83436 6.56911 3.45762 7.28281 3.18831L9.53125 4.44299C9.6291 4.49724 9.73972 4.52422 9.85156 4.52112C9.94609 4.52112 10.0414 4.52112 10.1359 4.52112C10.2477 4.52391 10.3583 4.49695 10.4562 4.44299L12.7094 3.18518C13.4246 3.45243 14.0948 3.82732 14.6969 4.2969L14.7055 6.81253C14.7059 6.92916 14.7389 7.04336 14.8008 7.14221C14.8492 7.22034 14.8969 7.29846 14.9414 7.38128C14.9966 7.48058 15.0776 7.56317 15.1758 7.62034L17.4102 8.89299C17.5273 9.62495 17.5286 10.3708 17.4141 11.1032H17.4172Z" fill="#7E8986"/>
</svg>
